<?xml version="1.0" encoding="iso-8859-1"?>
<!-- Generator: Adobe Illustrator 19.0.0, SVG Export Plug-In . SVG Version: 6.00 Build 0)  -->
<svg version="1.1" id="Capa_1" xmlns="http://www.w3.org/2000/svg" xmlns:xlink="http://www.w3.org/1999/xlink" x="0px" y="0px"
	 viewBox="0 0 512 512" style="enable-background:new 0 0 512 512;" xml:space="preserve">
<path style="fill:#7A666C;" d="M0,79.467V31.998C0,29.79,1.79,28,3.998,28h504.003c2.208,0,3.998,1.79,3.998,3.998v47.469H0z"/>
<path style="fill:#6A545A;" d="M481.095,79.467V28h26.907c2.208,0,3.998,1.79,3.998,3.998v47.469H481.095z"/>
<path style="fill:#FF5A51;" d="M0,79.467V31.998C0,29.79,1.79,28,3.998,28H115.38v51.467C115.38,79.467,0,79.467,0,79.467z"/>
<g>
	<circle style="fill:#FFBD2A;" cx="29.875" cy="53.755" r="7.726"/>
	<circle style="fill:#FFBD2A;" cx="87.56" cy="53.755" r="7.726"/>
	<circle style="fill:#FFBD2A;" cx="58.72" cy="53.755" r="7.726"/>
</g>
<path style="fill:#FF993B;" d="M0,425.446V79.467h512v345.979c0,2.208-1.79,3.998-3.998,3.998H3.998
	C1.79,429.445,0,427.655,0,425.446z"/>
<path style="fill:#FF7B48;" d="M481.095,79.467v349.977H508c2.209,0,4-1.789,4-3.997V79.467H481.095z"/>
<path style="fill:#A85759;" d="M502.82,479.456L502.82,479.456c-6.062,6.058-15.891,6.058-21.952,0l-134.764-134.69l21.947-21.935
	l134.77,134.696C508.879,463.583,508.879,473.4,502.82,479.456z"/>
<circle style="fill:#E75955;" cx="249.87" cy="226.92" r="155"/>
<path style="fill:#FF993B;" d="M249.871,350.918c-33.122,0-64.261-12.898-87.681-36.318c-48.347-48.349-48.347-127.015,0-175.363
	c23.421-23.421,54.56-36.319,87.681-36.319s64.26,12.898,87.681,36.319c48.348,48.348,48.348,127.014,0,175.363
	C314.132,338.02,282.993,350.918,249.871,350.918z"/>
<path style="fill:#FFD681;" d="M190.309,268.989c-1.851,0-3.705-0.681-5.155-2.054c-3.008-2.848-3.138-7.595-0.291-10.603
	l56.009-59.165c1.417-1.496,3.386-2.344,5.447-2.344h77.138c4.142,0,7.5,3.357,7.5,7.5s-3.358,7.5-7.5,7.5h-73.91l-53.79,56.821
	C194.282,268.203,192.297,268.989,190.309,268.989z"/>
<g>
	<circle style="fill:#FFBD2A;" cx="190.31" cy="261.49" r="20"/>
	<circle style="fill:#FFBD2A;" cx="246.32" cy="202.32" r="20"/>
	<circle style="fill:#FFBD2A;" cx="323.46" cy="202.32" r="20"/>
</g>
<g>
</g>
<g>
</g>
<g>
</g>
<g>
</g>
<g>
</g>
<g>
</g>
<g>
</g>
<g>
</g>
<g>
</g>
<g>
</g>
<g>
</g>
<g>
</g>
<g>
</g>
<g>
</g>
<g>
</g>
</svg>
