<svg viewBox="0 -16 512 512" xmlns="http://www.w3.org/2000/svg"><path d="m512 45v75l-30 30h-452l-30-30v-75c0-24.902344 20.097656-45 45-45h422c24.902344 0 45 20.097656 45 45zm0 0" fill="#ff7816"/><path d="m512 45v75l-30 30h-227v-150h212c24.902344 0 45 20.097656 45 45zm0 0" fill="#ff4b00"/><path d="m512 120v315c0 24.898438-20.097656 45-45 45h-422c-24.902344 0-45-20.101562-45-45v-315zm0 0" fill="#ececf1"/><path d="m512 120v315c0 24.898438-20.097656 45-45 45h-212v-360zm0 0" fill="#e2e2e7"/><path d="m452 315v90c0 8.398438-6.597656 15-15 15h-45l-15-30-15 30h-31l-15-30-15 30h-31l-15-30-15 30h-30l-15-30-15 30h-30l-15-30-15 30h-45c-8.402344 0-15-6.601562-15-15v-90c0-8.402344 6.597656-15 15-15h362c8.402344 0 15 6.597656 15 15zm0 0" fill="#ffd400"/><path d="m452 315v90c0 8.398438-6.597656 15-15 15h-45l-15-30-15 30h-31l-15-30-15 30h-31l-15-30v-90h182c8.402344 0 15 6.597656 15 15zm0 0" fill="#fdbf00"/><path d="m452 75c0 8.402344-6.597656 15-15 15h-182c-8.402344 0-15-6.597656-15-15s6.597656-15 15-15h182c8.402344 0 15 6.597656 15 15zm0 0" fill="#ececf1"/><path d="m89.972656 75c0 8.285156-6.71875 15-15 15-8.285156 0-15-6.714844-15-15s6.714844-15 15-15c8.28125 0 15 6.714844 15 15zm0 0" fill="#ececf1"/><path d="m149.972656 75c0 8.285156-6.71875 15-15 15-8.285156 0-15-6.714844-15-15s6.714844-15 15-15c8.28125 0 15 6.714844 15 15zm0 0" fill="#ececf1"/><path d="m209.972656 75c0 8.285156-6.71875 15-15 15-8.285156 0-15-6.714844-15-15s6.714844-15 15-15c8.28125 0 15 6.714844 15 15zm0 0" fill="#ececf1"/><path d="m437 90h-182v-30h182c8.402344 0 15 6.597656 15 15s-6.597656 15-15 15zm0 0" fill="#e2e2e7"/><path d="m135 360c-8.289062 0-15 6.710938-15 15v45h30v-45c0-8.289062-6.710938-15-15-15zm0 0" fill="#ff9f00"/><path d="m195 360c-8.289062 0-15 6.710938-15 15v45h30v-45c0-8.289062-6.710938-15-15-15zm0 0" fill="#ff9f00"/><path d="m270 375v45h-30v-45c0-8.402344 6.597656-15 15-15s15 6.597656 15 15zm0 0" fill="#ff9f00"/><g fill="#ff7816"><path d="m316 360c-8.289062 0-15 6.710938-15 15v45h30v-45c0-8.289062-6.710938-15-15-15zm0 0"/><path d="m377 360c-8.289062 0-15 6.710938-15 15v45h30v-45c0-8.289062-6.710938-15-15-15zm0 0"/><path d="m270 375v45h-15v-60c8.402344 0 15 6.597656 15 15zm0 0"/><path d="m407 180h-228l-30 34.199219v21.601562l30 34.199219h228zm0 0"/></g><path d="m179.101562 180v90l-109.800781-30.902344c-6-2.097656-9.300781-8.097656-9.300781-14.097656s3.300781-12 9.300781-14.097656zm0 0" fill="#fdbf00"/><path d="m255 180h152v90h-152zm0 0" fill="#ff4b00"/><path d="m407 180h-15v90h15c24.851562 0 45-20.148438 45-45s-20.148438-45-45-45zm0 0" fill="#384949"/></svg>