<?xml version="1.0" encoding="iso-8859-1"?>
<!-- Generator: Adobe Illustrator 19.0.0, SVG Export Plug-In . SVG Version: 6.00 Build 0)  -->
<svg version="1.1" id="Capa_1" xmlns="http://www.w3.org/2000/svg" xmlns:xlink="http://www.w3.org/1999/xlink" x="0px" y="0px"
	 viewBox="0 0 512 512" style="enable-background:new 0 0 512 512;" xml:space="preserve">
<path style="fill:#F1EBE0;" d="M499.55,473.499H12.45c-6.828,0-12.364-5.535-12.364-12.364V50.863
	c0-6.828,5.535-12.364,12.364-12.364h487.1c6.828,0,12.364,5.535,12.364,12.364v410.272
	C511.914,467.964,506.379,473.499,499.55,473.499z"/>
<path style="fill:#E8E1D7;" d="M499.554,38.499h-30.905c6.826,0,12.36,5.537,12.36,12.368v410.265c0,6.83-5.534,12.368-12.36,12.368
	h30.905c6.826,0,12.36-5.537,12.36-12.368V50.867C511.914,44.036,506.38,38.499,499.554,38.499z"/>
<path style="fill:#7A666C;" d="M512,120.963H0V50.865c0-6.83,5.536-12.366,12.366-12.366h487.268
	c6.829,0,12.366,5.536,12.366,12.366V120.963z"/>
<path style="fill:#6A545A;" d="M499.638,38.499h-30.989c6.827,0,12.362,5.538,12.362,12.37v70.095H512V50.869
	C512,44.037,506.465,38.499,499.638,38.499z"/>
<rect x="0.086" y="120.959" style="fill:#00E7FF;" width="511.83" height="30.924"/>
<rect x="481.01" y="120.959" style="fill:#00CAE1;" width="30.905" height="30.924"/>
<path style="fill:#00E7FF;" d="M499.634,473.499H12.366C5.536,473.499,0,467.963,0,461.133v-18.558h512v18.558
	C512,467.963,506.464,473.499,499.634,473.499z"/>
<path style="fill:#00CAE1;" d="M481.009,442.575v18.555c0,6.832-5.535,12.37-12.362,12.37h30.991c6.827,0,12.362-5.538,12.362-12.37
	v-18.555H481.009z"/>
<path style="fill:#FF993B;" d="M186.463,120.963H0V50.865c0-6.83,5.536-12.366,12.366-12.366h174.097V120.963z"/>
<circle style="fill:#0087D5;" cx="40.692" cy="79.839" r="15.453"/>
<circle style="fill:#FFBD2A;" cx="94.26" cy="79.839" r="15.453"/>
<circle style="fill:#FF5A51;" cx="146.8" cy="79.839" r="15.453"/>
<path style="fill:#FFD681;" d="M197.46,333.859l-42.18,7.35l-12.05,2.1l-19.39,3.37c-0.03,0-0.06,0.01-0.09,0.02l-0.74,0.13h-0.05
	c-0.08,0.01-0.15,0.01-0.23,0.01c-0.83,0-1.59-0.27-2.22-0.72c-0.96-0.69-1.59-1.82-1.59-3.1c0-0.13,0.01-0.26,0.02-0.39v-0.01
	c0.01-0.12,0.03-0.25,0.06-0.37l5.54-31.76l7.36-42.19l43.02,43.02L197.46,333.859z"/>
<path style="fill:#FFBD2A;" d="M197.46,333.859l-42.18,7.35l-12.05,2.1l-19.39,3.37c-0.03,0-0.06,0.01-0.09,0.02l-0.74,0.13h-0.05
	c-0.08,0.01-0.15,0.01-0.23,0.01c-0.83,0-1.59-0.27-2.22-0.72l5.96-3.81l18.24-11.67l30.21-19.32L197.46,333.859z"/>
<path style="fill:#444455;" d="M155.28,341.209l-12.05,2.1l-19.37,3.36c0,0-0.01,0-0.02,0.01c-0.03,0-0.06,0.01-0.09,0.02
	l-0.79,0.13c-0.08,0.01-0.15,0.01-0.23,0.01c-0.83,0-1.59-0.27-2.22-0.72c-0.96-0.69-1.59-1.82-1.59-3.1c0-0.13,0.01-0.26,0.02-0.39
	v-0.01c0.01-0.12,0.03-0.25,0.06-0.37c0-0.02,0.01-0.05,0.02-0.08l5.52-31.68l20.17,20.15L155.28,341.209z"/>
<path style="fill:#FF993B;" d="M351.605,165.141l-50.991-50.991l17.769-17.769c8.046-8.046,21.092-8.046,29.138,0l21.853,21.853
	c8.046,8.046,8.046,21.092,0,29.138L351.605,165.141z"/>
<path style="fill:#FF7B48;" d="M369.374,118.234l-17.17-17.17c-0.495-0.495-1.011-0.959-1.542-1.394
	c6.621,8.093,6.157,20.045-1.394,27.596l-17.663,17.663l20.105,20.105l17.663-17.663C377.42,139.326,377.42,126.281,369.374,118.234
	z"/>
<rect x="185.964" y="137.809" transform="matrix(-0.7071 -0.7071 0.7071 -0.7071 231.5288 562.7991)" style="fill:#E85955;" width="92.719" height="191.278"/>
<rect x="216.846" y="137.804" transform="matrix(-0.7071 -0.7071 0.7071 -0.7071 231.4894 562.7722)" style="fill:#FF5A51;" width="30.905" height="191.278"/>
<path style="fill:#FFD681;" d="M329.309,203.463l-67.017-67.017c-1.609-1.609-1.609-4.218,0-5.828l27.681-27.681
	c1.609-1.609,4.218-1.609,5.828,0l67.017,67.017c1.609,1.609,1.609,4.218,0,5.828l-27.681,27.681
	C333.527,205.072,330.918,205.072,329.309,203.463z"/>
<path style="fill:#FFBD2A;" d="M344.319,151.456l-33.509,33.509l18.498,18.498c1.609,1.609,4.218,1.609,5.828,0l27.681-27.681
	c1.609-1.609,1.609-4.218,0-5.828L344.319,151.456z"/>
<path style="fill:#5B5B75;" d="M394.044,377.142H117.956c-4.142,0-7.5-3.358-7.5-7.5s3.358-7.5,7.5-7.5h276.089
	c4.142,0,7.5,3.358,7.5,7.5S398.187,377.142,394.044,377.142z"/>
<path style="fill:#0087D5;" d="M323.481,171.626c-1.919,0-3.839-0.732-5.303-2.197l-21.854-21.854
	c-2.929-2.929-2.929-7.678,0-10.606c2.929-2.929,7.678-2.929,10.606,0l21.854,21.854c2.929,2.929,2.929,7.678,0,10.606
	C327.32,170.894,325.401,171.626,323.481,171.626z"/>
<g>
</g>
<g>
</g>
<g>
</g>
<g>
</g>
<g>
</g>
<g>
</g>
<g>
</g>
<g>
</g>
<g>
</g>
<g>
</g>
<g>
</g>
<g>
</g>
<g>
</g>
<g>
</g>
<g>
</g>
</svg>
